<?xml version="1.0" standalone="no"?>
<!DOCTYPE svg PUBLIC "-//W3C//DTD SVG 20010904//EN"
 "http://www.w3.org/TR/2001/REC-SVG-20010904/DTD/svg10.dtd">
<svg version="1.0" xmlns="http://www.w3.org/2000/svg"
 width="400.000000pt" height="400.000000pt" viewBox="0 0 400.000000 400.000000"
 preserveAspectRatio="xMidYMid meet">
<metadata>
Created by potrace 1.11, written by Peter Selinger 2001-2013
</metadata>
<g transform="translate(0.000000,400.000000) scale(0.100000,-0.100000)"
fill="#000000" stroke="none">
<path d="M729 3978 c-7 -13 -15 -25 -19 -28 -3 -3 -33 -45 -65 -95 -33 -49
-63 -94 -67 -100 -5 -5 -58 -82 -118 -170 l-110 -160 0 -157 c0 -144 2 -158
18 -158 16 -1 2953 -1 3178 0 l111 0 0 445 0 445 -1458 0 -1458 0 -12 -22z
m417 -146 c62 -32 124 -110 124 -156 0 -9 -13 -13 -39 -12 -34 1 -44 7 -70 43
-38 53 -63 66 -130 69 -93 4 -151 -37 -182 -128 -35 -105 -8 -243 60 -300 80
-68 230 -40 267 48 31 73 25 78 -88 75 l-58 -2 0 40 c0 23 3 41 8 42 11 1 205
1 223 0 15 -1 16 -20 16 -156 l0 -155 -38 0 c-38 0 -39 1 -39 35 l0 36 -22
-21 c-40 -38 -81 -53 -153 -58 -58 -4 -80 0 -123 18 -96 41 -157 138 -166 262
-11 168 66 298 204 338 47 15 163 4 206 -18z m2279 0 c49 -24 70 -46 90 -95
21 -51 20 -54 -27 -53 -35 1 -44 6 -62 33 -26 40 -68 60 -129 60 -53 1 -105
-27 -118 -63 -10 -29 17 -80 49 -92 15 -6 68 -20 117 -32 50 -12 107 -32 127
-46 63 -41 85 -106 62 -182 -22 -76 -92 -121 -200 -129 -105 -8 -186 24 -233
92 -28 42 -44 97 -30 106 10 6 79 4 82 -3 51 -103 81 -123 175 -115 58 4 70 9
94 36 32 35 35 66 12 99 -22 31 -57 47 -146 66 -129 26 -190 69 -204 142 -22
120 80 206 236 200 41 -2 81 -11 105 -24z m-1717 4 c80 -18 125 -78 125 -165
0 -70 -21 -111 -75 -141 l-38 -21 65 -128 c36 -70 65 -130 65 -134 0 -4 -22
-7 -50 -7 l-50 0 -61 123 c-34 67 -63 124 -66 127 -2 3 -36 5 -74 6 -63 1 -69
-1 -70 -20 -1 -12 -2 -69 -2 -128 l-1 -108 -48 0 -48 0 0 305 0 305 153 -4
c83 -2 163 -7 175 -10z m619 -291 c62 -165 113 -301 113 -303 0 -2 -23 -2 -52
0 l-51 3 -21 55 c-12 30 -24 60 -28 65 -5 8 -133 11 -244 6 -16 -1 -25 -15
-43 -66 l-23 -65 -49 0 -49 0 11 28 c6 15 56 148 111 297 54 148 105 273 111
277 7 4 32 7 56 5 l44 -2 114 -300z m494 297 c8 -40 3 -72 -10 -73 -9 -1 -52
-2 -96 -3 l-80 -1 -3 -262 -2 -263 -48 0 -47 0 1 253 c0 138 -1 257 -3 263 -3
7 -38 11 -98 10 l-95 -1 0 41 0 42 240 0 c132 0 241 -3 241 -6z m169 -298 l0
-304 -48 0 -48 0 1 303 c1 166 3 303 4 304 0 1 21 2 46 1 l45 -1 0 -303z"/>
<path d="M1479 3759 c-4 -42 -4 -166 -1 -176 4 -14 174 -10 214 5 55 22 59
128 6 162 -32 20 -218 28 -219 9z"/>
<path d="M2107 3605 c-26 -73 -47 -137 -47 -142 0 -5 45 -9 99 -9 l99 -1 -8
26 c-11 36 -89 254 -93 257 -1 2 -24 -57 -50 -131z"/>
<path d="M350 1832 l0 -1208 1653 1 1652 0 1 1208 1 1207 -1654 0 -1653 0 0
-1208z m825 945 c0 -71 -4 -118 -10 -118 -5 -1 -58 -2 -117 -3 l-108 -1 0 123
0 123 117 -3 117 -3 1 -118z m555 4 c0 -86 -3 -120 -12 -123 -7 -2 -60 -4
-118 -4 l-105 1 -3 123 -3 122 121 0 120 0 0 -119z m-209 -241 c398 -82 639
-431 624 -905 -4 -139 -8 -174 -35 -270 -78 -290 -269 -488 -546 -567 -106
-30 -341 -33 -449 -5 -415 108 -648 512 -591 1022 37 327 230 592 504 692 145
53 335 66 493 33z m870 -100 c15 -47 76 -233 134 -415 59 -181 117 -361 130
-400 13 -38 53 -164 90 -280 81 -258 75 -239 79 -234 2 2 60 186 130 409 70
223 154 488 186 590 32 102 75 238 95 303 l37 117 144 0 143 0 -80 -232 c-44
-128 -82 -240 -84 -248 -2 -8 -20 -60 -39 -115 -19 -55 -85 -248 -146 -430
-61 -181 -114 -337 -117 -345 -29 -83 -123 -356 -123 -357 0 -2 -69 -3 -154
-3 l-153 0 -16 43 c-18 49 -91 259 -172 497 -31 91 -75 217 -97 280 -23 63
-47 133 -54 155 -7 22 -51 150 -97 285 -47 135 -101 292 -121 349 -20 57 -36
108 -36 113 0 5 66 7 147 6 l146 -3 28 -85z"/>
<path d="M1265 2328 c-191 -25 -333 -138 -410 -326 -94 -232 -74 -577 47 -769
135 -215 413 -297 648 -190 48 21 132 86 165 126 110 135 154 286 151 516 -3
149 -16 219 -63 330 -93 221 -302 343 -538 313z"/>
<path d="M350 278 l0 -278 1208 0 1209 0 0 278 1 279 -1209 0 -1209 0 0 -279z
m610 171 c0 -14 -7 -19 -30 -19 -23 0 -30 5 -30 19 0 13 8 21 23 23 29 5 37 1
37 -23z m88 16 c19 -19 8 -35 -24 -35 -34 0 -39 6 -28 33 5 14 39 15 52 2z
m852 6 c3 -1 6 -10 7 -21 1 -16 -4 -20 -32 -20 -21 0 -33 5 -31 13 3 23 16 35
34 32 9 -2 19 -4 22 -4z m98 -19 c3 -19 -1 -22 -27 -22 -23 0 -31 5 -31 18 0
24 6 29 32 27 15 -1 24 -9 26 -23z m-1168 -72 c0 -29 -1 -30 -52 -31 -29 -1
-63 0 -76 1 -20 1 -23 -2 -20 -27 3 -27 4 -28 68 -28 l65 0 3 -30 3 -31 -71 1
-70 1 0 -62 0 -62 -35 1 -35 1 0 148 0 148 110 0 110 0 0 -30z m90 -79 c0
-113 6 -129 47 -135 26 -4 61 14 65 33 3 9 4 60 4 114 l-1 98 35 -3 35 -3 0
-100 c-1 -55 -4 -113 -8 -128 -15 -55 -107 -83 -185 -56 -48 16 -62 59 -62
183 l0 106 35 0 35 0 0 -109z m425 95 c38 -16 55 -42 55 -85 0 -28 -31 -71
-52 -71 -4 0 8 -26 27 -57 19 -32 35 -61 35 -64 0 -3 -17 -6 -38 -6 -35 0 -39
4 -71 57 -22 39 -39 57 -50 55 -9 -2 -19 -4 -23 -4 -4 -1 -6 -22 -5 -47 3 -50
-6 -62 -43 -60 l-25 1 -1 148 -1 147 79 0 c45 0 93 -6 113 -14z m415 -12 c0
-18 -22 -53 -70 -110 -38 -45 -70 -87 -70 -91 0 -5 32 -8 70 -8 l70 1 0 -32 0
-31 -120 1 c-66 0 -120 2 -121 6 0 3 -2 13 -4 23 -2 11 25 52 71 107 41 48 74
91 74 95 0 4 -17 6 -37 5 -94 -5 -100 -3 -95 30 l4 30 114 0 114 0 0 -26z
m105 -71 c-1 -54 3 -108 8 -120 11 -25 48 -34 79 -19 22 11 23 18 26 124 l3
112 34 0 35 0 0 -104 c0 -56 -5 -116 -10 -133 -14 -39 -57 -63 -117 -63 -63 0
-109 27 -119 72 -7 34 -13 207 -6 221 2 4 18 7 36 7 l32 0 -1 -97z m432 80
c57 -26 67 -104 18 -141 l-23 -17 35 -62 34 -62 -41 2 c-38 3 -43 6 -73 58
-18 30 -38 54 -44 53 -7 -1 -17 -2 -23 -3 -5 0 -10 -25 -10 -55 l0 -54 -32 1
-33 2 -3 148 -3 148 83 -2 c48 -1 96 -7 115 -16z m163 -131 l0 -148 -32 0 -33
1 -1 148 -1 147 33 0 34 0 0 -148z"/>
<path d="M1224 318 c1 -32 2 -33 44 -32 51 1 72 16 56 42 -7 11 -27 18 -56 20
-44 3 -44 3 -44 -30z"/>
<path d="M2170 314 c0 -35 1 -35 38 -33 44 3 62 15 62 39 0 21 -19 30 -66 30
-32 0 -34 -2 -34 -36z"/>
<path d="M2840 280 l0 -275 33 35 c18 19 64 71 102 115 38 44 72 82 75 85 35
32 34 38 -27 107 -33 38 -71 81 -84 96 -13 16 -41 48 -61 70 l-38 42 0 -275z"/>
<path d="M3130 535 c-1 -28 -1 -486 -1 -510 1 -23 2 -22 148 146 l93 107 -72
83 c-40 46 -84 98 -99 114 -15 17 -36 41 -48 55 -19 23 -20 23 -21 5z"/>
<path d="M3418 543 c0 -4 -2 -128 -2 -276 -2 -247 -1 -266 14 -250 9 10 61 70
116 133 54 63 102 117 106 120 4 3 -11 28 -35 55 -133 154 -197 225 -199 218z"/>
</g>
</svg>
